# xmcd CD database file
#
# Track frame offsets:
#	150
#	12621
#	25886
#	44218
#	61752
#	76977
#	97020
#	110215
#	121057
#	135589
#	154412
#	170793
#	193563
#	218436
#	236204
#	245235
#	268937
#
# Disc length: 3860 seconds
#
# Revision: 0
# Processed by: cddbd v1.5.2PL0 Copyright (c) Steve Scherf et al.
# Submitted via: CDex 1.79
#
DISCID=010f1211
DTITLE=Paul Grabowsky (p) and Niko Schauble (dr) - Grabowsky/Schauble SPIEL
DYEAR=2015
DGENRE=Jazz
TTITLE0=Paul Grabowsky (p) and Niko Schauble (dr) - Calling Jiu Jitsu
TTITLE1=Paul Grabowsky (p) and Niko Schauble (dr) - Chipper
TTITLE2=Paul Grabowsky (p) and Niko Schauble (dr) - Slog
TTITLE3=Paul Grabowsky (p) and Niko Schauble (dr) - Turnbuckle
TTITLE4=Paul Grabowsky (p) and Niko Schauble (dr) - Dead Man?s Gulch
TTITLE5=Paul Grabowsky (p) and Niko Schauble (dr) - Zone of Avoidance
TTITLE6=Paul Grabowsky (p) and Niko Schauble (dr) - El Salon Pughouse
TTITLE7=Paul Grabowsky (p) and Niko Schauble (dr) - Attention Deficit
TTITLE8=Paul Grabowsky (p) and Niko Schauble (dr) - Cat Eyes
TTITLE9=Paul Grabowsky (p) and Niko Schauble (dr) - Limax
TTITLE10=Paul Grabowsky (p) and Niko Schauble (dr) - Beatnix
TTITLE11=Paul Grabowsky (p) and Niko Schauble (dr) - Parallax
TTITLE12=Paul Grabowsky (p) and Niko Schauble (dr) - Gigantor
TTITLE13=Paul Grabowsky (p) and Niko Schauble (dr) - Tandem
TTITLE14=Paul Grabowsky (p) and Niko Schauble (dr) - Twinkle
TTITLE15=Paul Grabowsky (p) and Niko Schauble (dr) - Cricktrack
TTITLE16=Paul Grabowsky (p) and Niko Schauble (dr) - The Hook
EXTD=YEAR: 2015
EXTT0=
EXTT1=
EXTT2=
EXTT3=
EXTT4=
EXTT5=
EXTT6=
EXTT7=
EXTT8=
EXTT9=
EXTT10=
EXTT11=
EXTT12=
EXTT13=
EXTT14=
EXTT15=
EXTT16=
PLAYORDER=
